<?xml version="1.0" standalone="no"?>
<!DOCTYPE svg PUBLIC "-//W3C//DTD SVG 1.1//EN"
  "http://www.w3.org/Graphics/SVG/1.1/DTD/svg11.dtd">
<svg width="172mm" height="151.33699798583984mm" viewBox="-89 -71.33699798583984 172 151.33699798583984" xmlns="http://www.w3.org/2000/svg" version="1.1">
	<title>svgOutput</title>
	<desc>made with tinkercad</desc>
<path d="M -88 79 L -88 -70.33699798583984 L 48.185001373291016 -70.33699798583984 L 66.9749984741211 -70.33699798583984 L 82 -70.33699798583984 L 82 71.48899841308594 L 82 79 L 48.185001373291016 79 L -88 79 M 57.34400177001953 71.47721099853516 L 57.58000183105469 71.48899841308594 L 58.500999450683594 71.44300079345703 L 59.41299819946289 71.30799865722656 L 60.30699920654297 71.08399963378906 L 61.17499923706055 70.77400207519531 L 62.00899887084961 70.37899780273438 L 62.79999923706055 69.90499877929688 L 63.540000915527344 69.35600280761719 L 64.2229995727539 68.73699951171875 L 64.84200286865234 68.05400085449219 L 65.39199829101562 67.31300354003906 L 65.53600311279297 67.072998046875 L 65.86599731445312 66.52300262451172 L 66.26000213623047 65.68900299072266 L 66.31464385986328 65.53600311279297 L 66.56999969482422 64.82099914550781 L 66.79399871826172 63.926998138427734 L 66.93000030517578 63.01499938964844 L 66.9749984741211 62.09400177001953 L 66.93000030517578 61.17300033569336 L 66.79399871826172 60.26100158691406 L 66.56999969482422 59.367000579833984 L 66.26000213623047 58.499000549316406 L 65.86599731445312 57.665000915527344 L 65.53600311279297 57.11430358886719 L 65.39199829101562 56.874000549316406 L 64.84200286865234 56.13399887084961 L 64.2229995727539 55.45100021362305 L 63.540000915527344 54.832000732421875 L 62.79999923706055 54.28200149536133 L 62.00899887084961 53.80799865722656 L 61.17499923706055 53.41400146484375 L 60.30699920654297 53.104000091552734 L 59.41299819946289 52.880001068115234 L 58.500999450683594 52.74399948120117 L 57.58000183105469 52.69900131225586 L 57.34400177001953 52.71052932739258 L 56.659000396728516 52.74399948120117 L 55.74700164794922 52.880001068115234 L 54.85300064086914 53.104000091552734 L 53.98500061035156 53.41400146484375 L 53.1510009765625 53.80799865722656 L 52.361000061035156 54.28200149536133 L 51.619998931884766 54.832000732421875 L 50.9370002746582 55.45100021362305 L 50.31800079345703 56.13399887084961 L 49.76900100708008 56.874000549316406 L 49.29499816894531 57.665000915527344 L 49.152000427246094 57.9669303894043 L 48.900001525878906 58.499000549316406 L 48.59000015258789 59.367000579833984 L 48.36600112915039 60.26100158691406 L 48.23099899291992 61.17300033569336 L 48.185001373291016 62.09400177001953 L 48.23099899291992 63.01499938964844 L 48.36600112915039 63.926998138427734 L 48.59000015258789 64.82099914550781 L 48.84535598754883 65.53600311279297 L 48.900001525878906 65.68900299072266 L 49.152000427246094 66.2210693359375 L 49.29499816894531 66.52300262451172 L 49.76900100708008 67.31300354003906 L 50.31800079345703 68.05400085449219 L 50.9370002746582 68.73699951171875 L 51.619998931884766 69.35600280761719 L 52.361000061035156 69.90499877929688 L 53.1510009765625 70.37899780273438 L 53.98500061035156 70.77400207519531 L 54.85300064086914 71.08399963378906 L 55.74700164794922 71.30799865722656 L 56.659000396728516 71.44300079345703 L 57.34400177001953 71.47721099853516 z" fill="none" stroke="rgb(255,0,0)" stroke-width="0.001mm" />
</svg>